<svg width="28" height="28" viewBox="0 0 28 28" fill="none" xmlns="http://www.w3.org/2000/svg">
<g clip-path="url(#clip0_12_41)">
<path d="M10.8036 18.0114C11.4329 18.8308 12.2221 19.1359 13.32 19.1359H14.8394C16.2534 19.1359 17.3996 17.9872 17.3996 16.5701C17.3996 15.1531 16.2534 14.0044 14.8394 14.0044H13.1605C11.7465 14.0044 10.6003 12.8556 10.6003 11.4386C10.6003 10.0215 11.7465 8.87277 13.1605 8.87277H14.6799C15.7778 8.87277 16.567 9.17797 17.1963 9.99726" stroke="white" stroke-width="1.67" stroke-linecap="round" stroke-linejoin="round"/>
<path d="M14 20.4144V7.58554" stroke="white" stroke-width="1.67" stroke-linecap="round" stroke-linejoin="round"/>
<path d="M14 26.5417C20.9266 26.5417 26.5417 20.9266 26.5417 14C26.5417 7.07344 20.9266 1.45834 14 1.45834C7.07344 1.45834 1.45834 7.07344 1.45834 14C1.45834 20.9266 7.07344 26.5417 14 26.5417Z" stroke="white" stroke-width="1.67" stroke-linecap="round" stroke-linejoin="round"/>
</g>
<defs>
<clipPath id="clip0_12_41">
<rect width="28" height="28" fill="white"/>
</clipPath>
</defs>
</svg>
