<svg width="19" height="19" viewBox="0 0 19 19" fill="none" xmlns="http://www.w3.org/2000/svg">
<path d="M7.12504 15.0417C4.90131 15.0417 3.78944 15.0417 2.99074 14.508C2.64497 14.2769 2.34809 13.98 2.11705 13.6343C1.58337 12.8356 1.58337 11.7237 1.58337 9.49999C1.58337 7.27627 1.58337 6.16439 2.11705 5.36569C2.34809 5.01992 2.64497 4.72305 2.99074 4.49201C3.78944 3.95833 4.90131 3.95833 7.12504 3.95833H11.875C14.0988 3.95833 15.2106 3.95833 16.0094 4.49201C16.3551 4.72305 16.652 5.01992 16.883 5.36569C17.4167 6.16439 17.4167 7.27627 17.4167 9.49999C17.4167 11.7237 17.4167 12.8356 16.883 13.6343C16.652 13.98 16.3551 14.2769 16.0094 14.508C15.2106 15.0417 14.0988 15.0417 11.875 15.0417H7.12504Z" stroke="white"/>
<path d="M9.5 7.125C10.8117 7.125 11.875 8.18829 11.875 9.5C11.875 10.8117 10.8117 11.875 9.5 11.875C8.18829 11.875 7.125 10.8117 7.125 9.5C7.125 8.18829 8.18829 7.125 9.5 7.125Z" stroke="white"/>
<path d="M4.35413 11.875V7.125" stroke="white" stroke-linecap="round"/>
<path d="M14.6459 11.875V7.125" stroke="white" stroke-linecap="round"/>
</svg>
