<svg width="17" height="17" viewBox="0 0 17 17" fill="none" xmlns="http://www.w3.org/2000/svg">
<path d="M12.7878 12.5677C12.8371 12.617 12.8763 12.6756 12.903 12.7401C12.9297 12.8045 12.9434 12.8736 12.9434 12.9434C12.9434 13.0131 12.9296 13.0822 12.9029 13.1467C12.8762 13.2111 12.8371 13.2697 12.7877 13.319C12.0768 14.03 11.1787 14.5246 10.1978 14.7453C9.21689 14.9661 8.19349 14.904 7.24649 14.5662C6.2995 14.2285 5.4678 13.6289 4.84804 12.8372C4.22828 12.0455 3.84592 11.0941 3.74537 10.0938H2.65625C2.51535 10.0938 2.38023 10.0378 2.2806 9.93815C2.18097 9.83852 2.125 9.7034 2.125 9.5625C2.125 9.4216 2.18097 9.28648 2.2806 9.18685C2.38023 9.08722 2.51535 9.03125 2.65625 9.03125H3.71875V7.96875H2.65625C2.51535 7.96875 2.38023 7.91278 2.2806 7.81315C2.18097 7.71352 2.125 7.5784 2.125 7.4375C2.125 7.2966 2.18097 7.16148 2.2806 7.06185C2.38023 6.96222 2.51535 6.90625 2.65625 6.90625H3.74537C3.84592 5.90586 4.22828 4.95454 4.84804 4.16283C5.4678 3.37113 6.2995 2.77155 7.24649 2.43377C8.19349 2.09599 9.2169 2.03388 10.1978 2.25466C11.1787 2.47544 12.0768 2.97003 12.7877 3.68098C12.8371 3.73029 12.8763 3.78885 12.9031 3.85332C12.9298 3.91778 12.9436 3.98688 12.9436 4.05667C12.9436 4.12646 12.9299 4.19558 12.9032 4.26006C12.8765 4.32455 12.8374 4.38314 12.788 4.43249C12.7387 4.48185 12.6801 4.521 12.6156 4.5477C12.5511 4.5744 12.482 4.58814 12.4122 4.58812C12.3425 4.58811 12.2733 4.57434 12.2089 4.54761C12.1444 4.52088 12.0858 4.4817 12.0365 4.43233C11.4743 3.86999 10.7655 3.4767 9.99084 3.29719C9.21616 3.11768 8.40666 3.15915 7.65438 3.41688C6.9021 3.67461 6.23724 4.13827 5.73541 4.75512C5.23357 5.37198 4.91489 6.11727 4.81562 6.90625H9.03125C9.17215 6.90625 9.30727 6.96222 9.4069 7.06185C9.50653 7.16148 9.5625 7.2966 9.5625 7.4375C9.5625 7.5784 9.50653 7.71352 9.4069 7.81315C9.30727 7.91278 9.17215 7.96875 9.03125 7.96875H4.78125V9.03125H7.96875C8.10965 9.03125 8.24477 9.08722 8.3444 9.18685C8.44403 9.28648 8.5 9.4216 8.5 9.5625C8.5 9.7034 8.44403 9.83852 8.3444 9.93815C8.24477 10.0378 8.10965 10.0938 7.96875 10.0938H4.81562C4.91489 10.8827 5.23357 11.628 5.73541 12.2449C6.23724 12.8617 6.9021 13.3254 7.65438 13.5831C8.40666 13.8409 9.21616 13.8823 9.99084 13.7028C10.7655 13.5233 11.4743 13.13 12.0365 12.5677C12.1362 12.4681 12.2713 12.4121 12.4122 12.4121C12.5531 12.4121 12.6882 12.4681 12.7878 12.5677Z" fill="white"/>
</svg>
