<svg width="18" height="18" viewBox="0 0 18 18" fill="none" xmlns="http://www.w3.org/2000/svg">
<path fill-rule="evenodd" clip-rule="evenodd" d="M4.90012 3H13.1273C13.4417 3 13.7037 3.05241 14.0181 3.20958C14.3849 3.36682 14.5945 3.62881 14.6993 3.83839C14.6993 3.83839 14.6993 3.8908 14.7518 3.8908C14.909 4.1528 15.0137 4.4672 15.0137 4.83402C15.0137 5.14842 14.9613 5.46282 14.7518 5.77723L9.56394 14.6856C9.45912 14.8952 9.24954 15 8.98754 15C8.77796 15 8.56832 14.8952 8.41115 14.6856L3.32804 5.77729C3.22322 5.5677 3.01363 5.30565 3.01363 4.88643C2.96122 4.51961 3.06605 4.20521 3.22322 3.8908C3.38045 3.5764 3.64244 3.3144 4.00926 3.20958C4.32372 3 4.69053 3 4.90012 3ZM8.35868 4.25762H4.90012C4.69053 4.25762 4.58571 4.25762 4.5333 4.31003C4.42848 4.36244 4.37607 4.41485 4.32372 4.51961C4.27131 4.57202 4.27131 4.67684 4.27131 4.7816C4.27131 4.83401 4.32372 4.88642 4.42854 5.09601L8.35868 11.9083V4.25762ZM9.61629 4.25762V11.9607L13.5988 5.09607C13.6513 4.99125 13.6513 4.88648 13.6513 4.78166C13.6513 4.67684 13.6513 4.57208 13.5988 4.51967C13.5464 4.46726 13.5464 4.41485 13.494 4.41485L13.4416 4.36244C13.3368 4.31003 13.232 4.31003 13.0748 4.31003H9.61624L9.61629 4.25762Z" fill="white"/>
</svg>
