<svg width="19" height="19" viewBox="0 0 19 19" fill="none" xmlns="http://www.w3.org/2000/svg">
<path fill-rule="evenodd" clip-rule="evenodd" d="M10.25 3.125C10.25 2.71079 9.91422 2.375 9.5 2.375C9.08578 2.375 8.75 2.71079 8.75 3.125V3.5444C7.87246 3.64956 7.06502 3.93882 6.42211 4.3829C5.59664 4.95309 5 5.8177 5 6.875C5 7.83049 5.36875 8.71782 6.18335 9.34445C6.82578 9.83862 7.69073 10.1289 8.75 10.2192V13.9414C8.16207 13.8472 7.65535 13.6459 7.27461 13.3829C6.74284 13.0155 6.5 12.5677 6.5 12.125C6.5 11.7108 6.16421 11.375 5.75 11.375C5.33579 11.375 5 11.7108 5 12.125C5 13.1823 5.59664 14.0469 6.42211 14.6171C7.06502 15.0612 7.87246 15.3504 8.75 15.4556V15.875C8.75 16.2892 9.08578 16.625 9.5 16.625C9.91422 16.625 10.25 16.2892 10.25 15.875V15.4576C11.1216 15.3576 11.9282 15.0819 12.5731 14.6439C13.4092 14.076 14 13.2077 14 12.125C14 11.145 13.6358 10.2516 12.8119 9.6284C12.1678 9.1412 11.3029 8.86505 10.25 8.77925V5.0586C10.8379 5.15274 11.3447 5.3541 11.7254 5.61709C12.2572 5.98441 12.5 6.4323 12.5 6.875C12.5 7.28921 12.8358 7.625 13.25 7.625C13.6642 7.625 14 7.28921 14 6.875C14 5.8177 13.4034 4.95309 12.5779 4.38291C11.935 3.93881 11.1276 3.64956 10.25 3.5444V3.125ZM8.75 5.0586C8.16207 5.15275 7.65535 5.35411 7.27461 5.6171C6.74284 5.98441 6.5 6.4323 6.5 6.875C6.5 7.41951 6.69376 7.84464 7.09792 8.15555C7.43223 8.41272 7.96019 8.6288 8.75 8.71265V5.0586ZM10.25 10.2852V13.9447C10.8433 13.8548 11.3511 13.6605 11.7303 13.403C12.2514 13.0491 12.5 12.6048 12.5 12.125C12.5 11.5424 12.3017 11.1233 11.907 10.8247C11.5744 10.5732 11.0462 10.3653 10.25 10.2852Z" fill="#FEFEFE"/>
</svg>
