<svg width="18" height="18" viewBox="0 0 18 18" fill="none" xmlns="http://www.w3.org/2000/svg">
<path d="M10.4062 10.6875C11.5251 10.6875 12.5982 10.243 13.3894 9.45186C14.1805 8.66069 14.625 7.58763 14.625 6.46875C14.625 5.34987 14.1805 4.27681 13.3894 3.48564C12.5982 2.69447 11.5251 2.25 10.4062 2.25H6.1875C6.03832 2.25001 5.89525 2.30927 5.78976 2.41476C5.68427 2.52025 5.62501 2.66332 5.625 2.8125V9.5625H3.9375C3.78832 9.5625 3.64524 9.62176 3.53975 9.72725C3.43426 9.83274 3.375 9.97582 3.375 10.125C3.375 10.2742 3.43426 10.4173 3.53975 10.5227C3.64524 10.6282 3.78832 10.6875 3.9375 10.6875H5.625V11.8125H3.9375C3.78832 11.8125 3.64524 11.8718 3.53975 11.9773C3.43426 12.0827 3.375 12.2258 3.375 12.375C3.375 12.5242 3.43426 12.6673 3.53975 12.7727C3.64524 12.8782 3.78832 12.9375 3.9375 12.9375H5.625V15.1875C5.625 15.3367 5.68426 15.4798 5.78975 15.5852C5.89524 15.6907 6.03832 15.75 6.1875 15.75C6.33668 15.75 6.47976 15.6907 6.58525 15.5852C6.69074 15.4798 6.75 15.3367 6.75 15.1875V12.9375H10.125C10.2742 12.9375 10.4173 12.8782 10.5227 12.7727C10.6282 12.6673 10.6875 12.5242 10.6875 12.375C10.6875 12.2258 10.6282 12.0827 10.5227 11.9773C10.4173 11.8718 10.2742 11.8125 10.125 11.8125H6.75V10.6875H10.4062ZM6.75 3.375H10.4062C11.2268 3.375 12.0137 3.70095 12.5939 4.28114C13.1741 4.86133 13.5 5.64824 13.5 6.46875C13.5 7.28926 13.1741 8.07617 12.5939 8.65636C12.0137 9.23655 11.2268 9.5625 10.4062 9.5625H6.75V3.375Z" fill="white"/>
</svg>
