<svg width="24" height="24" viewBox="0 0 24 24" fill="none" xmlns="http://www.w3.org/2000/svg">
<path fill-rule="evenodd" clip-rule="evenodd" d="M7.43519 5.33333H16.5356C16.8834 5.33333 17.1732 5.3913 17.5211 5.56516C17.9268 5.73908 18.1587 6.02888 18.2746 6.26071C18.2746 6.26071 18.2746 6.31869 18.3326 6.31869C18.5065 6.60849 18.6224 6.95627 18.6224 7.36202C18.6224 7.7098 18.5644 8.05758 18.3326 8.40536L12.5941 18.2593C12.4781 18.4912 12.2463 18.6071 11.9565 18.6071C11.7247 18.6071 11.4928 18.4912 11.3189 18.2593L5.69623 8.40542C5.58029 8.17359 5.34846 7.88372 5.34846 7.42C5.29048 7.01425 5.40643 6.66647 5.58029 6.31869C5.75421 5.97091 6.04401 5.68111 6.44976 5.56516C6.79761 5.33333 7.20336 5.33333 7.43519 5.33333ZM11.2609 6.72444H7.43519C7.20336 6.72444 7.08741 6.72444 7.02944 6.78241C6.91349 6.84039 6.85552 6.89836 6.79761 7.01425C6.73963 7.07222 6.73963 7.18817 6.73963 7.30405C6.73963 7.36202 6.79761 7.42 6.91355 7.65183L11.2609 15.1872V6.72444ZM12.652 6.72444V15.2452L17.0573 7.65189C17.1153 7.53594 17.1153 7.42006 17.1153 7.30411C17.1153 7.18817 17.1153 7.07228 17.0573 7.01431C16.9993 6.95634 16.9993 6.89836 16.9413 6.89836L16.8834 6.84039C16.7674 6.78242 16.6515 6.78241 16.4776 6.78241H12.6519L12.652 6.72444Z" fill="white"/>
</svg>
